HIERARCHY
ROOT Hips
{
	OFFSET 0.000000 0.000000 0.000000
	CHANNELS 6 Xposition Yposition Zposition Xrotation Yrotation Zrotation
	JOINT LeftUpLeg_virtual
	{
		OFFSET 0.000000 0.000000 0.000000
		CHANNELS 3 Xrotation Yrotation Zrotation
		JOINT LeftUpLeg
		{
			OFFSET 15.427100 -6.655098 0.678600
			CHANNELS 3 Xrotation Yrotation Zrotation
			JOINT LeftLeg
			{
				OFFSET 4.081073 -39.591068 13.024000
				CHANNELS 3 Xrotation Yrotation Zrotation
				JOINT LeftFoot
				{
					OFFSET -4.081074 -37.707932 -15.979700
					CHANNELS 3 Xrotation Yrotation Zrotation
					JOINT LeftToeBase
					{
						OFFSET 5.346399 -15.068900 20.645000
						CHANNELS 3 Xrotation Yrotation Zrotation
						JOINT LeftToe_End
						{
							OFFSET 2.754700 0.931300 11.300900
							CHANNELS 3 Xrotation Yrotation Zrotation
							End Site
							{
								OFFSET 0 0 0
							}
						}
					}
				}
			}
		}
	}
	JOINT RightUpLeg_virtual
	{
		OFFSET 0.000000 0.000000 0.000000
		CHANNELS 3 Xrotation Yrotation Zrotation
		JOINT RightUpLeg
		{
			OFFSET -15.569500 -6.655098 0.678600
			CHANNELS 3 Xrotation Yrotation Zrotation
			JOINT RightLeg
			{
				OFFSET -4.081825 -39.591045 13.023800
				CHANNELS 3 Xrotation Yrotation Zrotation
				JOINT RightFoot
				{
					OFFSET 4.081824 -37.707954 -15.979600
					CHANNELS 3 Xrotation Yrotation Zrotation
					JOINT RightToeBase
					{
						OFFSET -5.346400 -15.068900 20.645000
						CHANNELS 3 Xrotation Yrotation Zrotation
						JOINT RightToe_End
						{
							OFFSET -2.754700 0.931300 11.300900
							CHANNELS 3 Xrotation Yrotation Zrotation
							End Site
							{
								OFFSET 0 0 0
							}
						}
					}
				}
			}
		}
	}
	JOINT Spine_virtual
	{
		OFFSET 0.000000 0.000000 0.000000
		CHANNELS 3 Xrotation Yrotation Zrotation
		JOINT Spine
		{
			OFFSET -0.279200 12.230698 -2.892100
			CHANNELS 3 Xrotation Yrotation Zrotation
			JOINT Spine1
			{
				OFFSET -0.232667 10.192268 -1.242267
				CHANNELS 3 Xrotation Yrotation Zrotation
				JOINT Spine1_split
				{
					OFFSET -0.232667 10.192268 -1.242267
					CHANNELS 3 Xrotation Yrotation Zrotation
					JOINT Spine2
					{
						OFFSET -0.232667 10.192268 -1.242267
						CHANNELS 3 Xrotation Yrotation Zrotation
						JOINT Neck_virtual
						{
							OFFSET 0.000000 0.000000 0.000000
							CHANNELS 3 Xrotation Yrotation Zrotation
							JOINT Neck
							{
								OFFSET -0.418800 17.814194 8.416900
								CHANNELS 3 Xrotation Yrotation Zrotation
								JOINT Head
								{
									OFFSET 0.000000 7.031097 3.806800
									CHANNELS 3 Xrotation Yrotation Zrotation
									JOINT HeadTop_End
									{
										OFFSET 0.000000 24.646606 12.978600
										CHANNELS 3 Xrotation Yrotation Zrotation
										End Site
										{
											OFFSET 0 0 0
										}
									}
								}
							}
						}
						JOINT LeftShoulder_virtual
						{
							OFFSET 0.000000 0.000000 0.000000
							CHANNELS 3 Xrotation Yrotation Zrotation
							JOINT LeftShoulder
							{
								OFFSET 8.476499 7.247704 -3.868750
								CHANNELS 3 Xrotation Yrotation Zrotation
								JOINT LeftShoulder_split
								{
									OFFSET 8.476499 7.247704 -3.868750
									CHANNELS 3 Xrotation Yrotation Zrotation
									JOINT LeftArm
									{
										OFFSET 9.308998 -2.777710 0.208600
										CHANNELS 3 Xrotation Yrotation Zrotation
										JOINT LeftForeArm
										{
											OFFSET 29.972298 0.000000 0.000000
											CHANNELS 3 Xrotation Yrotation Zrotation
											JOINT LeftHand
											{
												OFFSET 26.026505 0.000000 0.000000
												CHANNELS 3 Xrotation Yrotation Zrotation
												End Site
												{
													OFFSET 0 0 0
												}
											}
										}
									}
								}
							}
						}
						JOINT RightShoulder_virtual
						{
							OFFSET 0.000000 0.000000 0.000000
							CHANNELS 3 Xrotation Yrotation Zrotation
							JOINT RightShoulder
							{
								OFFSET -7.570500 7.247704 -3.868750
								CHANNELS 3 Xrotation Yrotation Zrotation
								JOINT RightShoulder_split
								{
									OFFSET -7.570500 7.247704 -3.868750
									CHANNELS 3 Xrotation Yrotation Zrotation
									JOINT RightArm
									{
										OFFSET -9.308998 -2.777710 0.208500
										CHANNELS 3 Xrotation Yrotation Zrotation
										JOINT RightForeArm
										{
											OFFSET -29.972300 0.000000 0.000000
											CHANNELS 3 Xrotation Yrotation Zrotation
											JOINT RightHand
											{
												OFFSET -26.026505 0.000000 0.000000
												CHANNELS 3 Xrotation Yrotation Zrotation
												End Site
												{
													OFFSET 0 0 0
												}
											}
										}
									}
								}
							}
						}
					}
				}
			}
		}
	}
}
MOTION
Frames: 7
Frame Time: 0.03333333
13.890025 95.305748 -18.348518 0.000000 0.000000 0.000000 -1.040891 -12.276550 0.449022 -5.508783 16.493862 -2.546338 12.465920 3.925744 3.577776 -4.059134 18.819613 -5.123832 0.988417 -2.651917 1.424801 0.000000 0.000000 0.000000 -0.221115 -10.169357 0.341448 -9.804691 -6.144052 -7.183104 9.849991 9.044056 1.796127 -10.331988 -10.727715 11.169589 8.180374 3.938658 -9.034123 0.000000 0.000000 0.000000 -3.593468 -5.264993 -0.489870 3.963098 1.880324 -0.290504 -0.755850 -3.187899 -0.454320 0.164744 -0.252813 -0.005254 0.000000 0.000000 0.000000 -0.351092 -0.125946 -1.059876 3.229887 14.034817 9.627495 -8.222773 -10.926980 -31.246370 0.000000 0.000000 0.000000 -1.219003 -2.329059 -0.982137 1.835547 -6.637131 -12.211305 1.876237 -2.179706 -3.838442 -8.649251 -6.781590 -59.193739 2.871142 -17.476854 -2.049271 0.000000 0.000000 0.000000 -1.078034 -1.829586 -0.776952 2.810798 -2.590611 17.532421 -3.023345 0.895092 0.322871 6.966665 -0.496139 65.173774 -1.493545 14.569043 3.974569 0.000000 0.000000 0.000000 
14.435029 95.343674 -18.157867 0.000000 0.000000 0.000000 -0.988093 -13.379889 0.317204 -5.351972 16.564402 -3.006145 12.412980 3.981751 3.783468 -4.099439 19.222066 -4.823113 0.772915 -2.520819 1.446770 0.000000 0.000000 0.000000 -0.182536 -11.155030 0.202490 -9.929119 -5.826592 -7.074622 9.664164 9.413530 1.802928 -10.495937 -10.737005 10.723896 8.235834 3.880653 -8.897967 0.000000 0.000000 0.000000 -3.600411 -6.094577 -0.666697 3.853971 1.706857 -0.351530 -0.734600 -3.430888 -0.461844 0.171886 -0.248453 -0.013378 0.000000 0.000000 0.000000 -0.344317 -0.371592 -1.066590 3.213501 14.678712 9.762754 -8.642994 -10.214657 -32.140828 0.000000 0.000000 0.000000 -1.197733 -2.581011 -1.008925 1.851050 -7.048616 -12.543227 1.797076 -2.102605 -3.678867 -9.308293 -8.065850 -59.739935 3.107514 -17.850332 -1.968144 0.000000 0.000000 0.000000 -1.087100 -2.059397 -0.784383 2.751001 -2.508490 17.802839 -2.888152 0.851691 0.189047 6.434769 -0.587283 65.903034 -1.033796 14.769736 3.632758 0.000000 0.000000 0.000000 
14.928538 95.382927 -17.973030 0.000000 0.000000 0.000000 -0.901026 -14.424460 0.182522 -5.267512 16.652727 -3.404642 12.362766 4.024670 3.999307 -4.100280 19.594126 -4.537339 0.578689 -2.398313 1.467025 0.000000 0.000000 0.000000 -0.103646 -12.105745 0.062111 -10.023669 -5.566427 -6.936198 9.407839 9.674178 1.821999 -10.624760 -10.782507 10.210014 8.310604 3.813324 -8.720899 0.000000 0.000000 0.000000 -3.563848 -6.882912 -0.845847 3.774498 1.513619 -0.489218 -0.688358 -3.668660 -0.458139 0.183579 -0.232988 -0.020733 0.000000 0.000000 0.000000 -0.300301 -0.612295 -1.063701 3.141759 15.299503 9.902039 -9.182998 -9.611036 -32.845844 0.000000 0.000000 0.000000 -1.135004 -2.825841 -1.020938 1.856752 -7.498675 -12.815417 1.725468 -2.019497 -3.576453 -9.861698 -9.609486 -60.264316 3.370000 -18.473503 -1.832248 0.000000 0.000000 0.000000 -1.046511 -2.283255 -0.779748 2.669869 -2.446632 18.132733 -2.783729 0.796572 0.011701 5.811899 -0.648932 66.598900 -0.460989 14.901120 3.282032 0.000000 0.000000 0.000000 
15.363481 95.427132 -17.800659 0.000000 0.000000 0.000000 -0.754311 -15.368346 0.057907 -5.269712 16.768861 -3.737232 12.293282 4.042046 4.217970 -4.074744 19.904810 -4.263967 0.452110 -2.287739 1.506583 0.000000 0.000000 0.000000 0.027611 -13.003359 -0.067997 -10.107541 -5.337203 -6.810336 9.084192 9.851009 1.856471 -10.597155 -10.844090 9.760461 8.268928 3.758204 -8.510285 0.000000 0.000000 0.000000 -3.460156 -7.613516 -1.012968 3.704183 1.291759 -0.717436 -0.621092 -3.900687 -0.445432 0.189636 -0.214032 -0.021547 0.000000 0.000000 0.000000 -0.226151 -0.845522 -1.054571 3.024053 15.888871 10.060266 -9.773286 -9.116029 -33.357572 0.000000 0.000000 0.000000 -1.035129 -3.062281 -1.018014 1.853491 -7.965771 -13.009048 1.656248 -1.933210 -3.519445 -10.308877 -11.365636 -60.768856 3.659369 -19.374484 -1.644629 0.000000 0.000000 0.000000 -0.961806 -2.499750 -0.769317 2.567990 -2.429210 18.511086 -2.702949 0.710761 -0.210783 5.128401 -0.700360 67.239968 0.218677 14.991278 2.920072 0.000000 0.000000 0.000000 
15.742541 95.478989 -17.643913 0.000000 0.000000 0.000000 -0.543404 -16.168709 -0.053350 -5.390602 16.908702 -3.984723 12.205605 4.007482 4.427169 -4.000839 20.113437 -4.036906 0.363388 -2.189557 1.595091 0.000000 0.000000 0.000000 0.230646 -13.814813 -0.181036 -10.182638 -5.111169 -6.715343 8.676385 9.981029 1.909523 -10.405800 -10.894973 9.473785 8.108357 3.725182 -8.273866 0.000000 0.000000 0.000000 -3.271982 -8.266483 -1.168538 3.623489 1.036880 -1.041201 -0.537899 -4.128913 -0.427526 0.195435 -0.192890 -0.016545 0.000000 0.000000 0.000000 -0.126733 -1.070675 -1.041494 2.855501 16.432264 10.258500 -10.325990 -8.709520 -33.685373 0.000000 0.000000 0.000000 -0.902825 -3.290786 -1.002954 1.840219 -8.440706 -13.118796 1.604485 -1.838453 -3.513600 -10.658768 -13.263865 -61.259611 3.963895 -20.473055 -1.424760 0.000000 0.000000 0.000000 -0.838980 -2.711905 -0.758532 2.448040 -2.463007 18.918024 -2.632441 0.593909 -0.463395 4.431372 -0.773284 67.820992 0.987563 15.113440 2.549254 0.000000 0.000000 0.000000 
16.070143 95.534363 -17.501755 0.000000 0.000000 0.000000 -0.261614 -16.829292 -0.155300 -5.627170 17.048642 -4.144163 12.115735 3.925075 4.620410 -3.865766 20.218246 -3.849103 0.260821 -2.107452 1.751654 0.000000 0.000000 0.000000 0.504998 -14.493339 -0.284551 -10.223338 -4.882890 -6.637890 8.176203 10.070275 1.976174 -10.162153 -10.932543 9.317929 7.905048 3.716469 -8.017487 0.000000 0.000000 0.000000 -2.994176 -8.835424 -1.310679 3.521623 0.755560 -1.452489 -0.445076 -4.353840 -0.407962 0.199334 -0.174915 -0.009618 0.000000 0.000000 0.000000 -0.005036 -1.286480 -1.026897 2.638755 16.929764 10.514082 -10.776809 -8.356129 -33.833123 0.000000 0.000000 0.000000 -0.739946 -3.513326 -0.979839 1.816429 -8.920362 -13.153929 1.563079 -1.720690 -3.525114 -10.898502 -15.228190 -61.733784 4.258590 -21.645097 -1.192616 0.000000 0.000000 0.000000 -0.679032 -2.920189 -0.750995 2.316069 -2.541728 19.327197 -2.572428 0.471345 -0.713728 3.774640 -0.882755 68.340523 1.818097 15.343631 2.176436 0.000000 0.000000 0.000000 
16.351551 95.593185 -17.387413 0.000000 0.000000 0.000000 0.086277 -17.366837 -0.255361 -5.979340 17.166183 -4.219722 12.065985 3.828953 4.792961 -3.689889 20.252402 -3.664659 0.163315 -2.035105 1.924039 0.000000 0.000000 0.000000 0.843814 -15.031257 -0.386101 -10.196544 -4.686722 -6.544116 7.643303 10.079627 2.045798 -10.003793 -10.993662 9.160190 7.776362 3.727026 -7.737726 0.000000 0.000000 0.000000 -2.648684 -9.327405 -1.445353 3.403560 0.468833 -1.937095 -0.342897 -4.570410 -0.388546 0.198837 -0.173239 -0.005200 0.000000 0.000000 0.000000 0.138990 -1.492218 -1.011198 2.370081 17.366603 10.838795 -11.106047 -8.024942 -33.801175 0.000000 0.000000 0.000000 -0.554198 -3.728063 -0.951378 1.780423 -9.400867 -13.122557 1.521310 -1.628174 -3.554819 -11.023301 -17.128774 -62.167876 4.510434 -22.779859 -0.966181 0.000000 0.000000 0.000000 -0.491021 -3.123897 -0.746106 2.176446 -2.636761 19.711113 -2.505904 0.367668 -0.934890 3.203018 -1.027400 68.797743 2.672172 15.709015 1.811614 0.000000 0.000000 0.000000 
